<?xml version="1.0" encoding="UTF-8"?>
<!DOCTYPE svg PUBLIC "-//W3C//DTD SVG 1.1//EN" "http://www.w3.org/Graphics/SVG/1.1/DTD/svg11.dtd">
<!-- Creator: CorelDRAW 2017 -->
<svg xmlns="http://www.w3.org/2000/svg" xml:space="preserve" width="210mm" height="297mm" version="1.1" style="shape-rendering:geometricPrecision; text-rendering:geometricPrecision; image-rendering:optimizeQuality; fill-rule:evenodd; clip-rule:evenodd"
viewBox="0 0 21000 29700"
 xmlns:xlink="http://www.w3.org/1999/xlink">
 <defs>
  <style type="text/css">
   <![CDATA[
    .fil1 {fill:#FEFEFE;fill-rule:nonzero}
    .fil0 {fill:#D8332B;fill-rule:nonzero}
   ]]>
  </style>
    <clipPath id="id0" style="clip-rule:nonzero">
     <path d="M18761.23 16625.88c0,6497.72 -3694.28,10054.16 -8643.04,10054.16 -4948.78,0 -8501.95,-3521.16 -8501.95,-10018.89 0,-6497.7 4303.89,-13511.38 8501.95,-13511.38 4198.04,0 8643.04,6978.41 8643.04,13476.11z"/>
    </clipPath>
    <clipPath id="id1" style="clip-rule:nonzero">
     <path d="M18761.23 16625.88c0,6497.72 -3694.28,10054.16 -8643.04,10054.16 -4948.78,0 -8501.95,-3521.16 -8501.95,-10018.89 0,-6497.7 4303.89,-13511.38 8501.95,-13511.38 4198.04,0 8643.04,6978.41 8643.04,13476.11z"/>
    </clipPath>
 </defs>
 <g id="图层_x0020_1">
  <metadata id="CorelCorpID_0Corel-Layer"/>
  <polygon class="fil0" points="20887.51,26891.71 105.38,26891.71 105.38,2761.72 20887.51,2761.72 "/>
  <g id="_1227305248">
   <path class="fil1" d="M18761.23 16625.88c0,6497.72 -3694.28,10054.16 -8643.04,10054.16 -4948.78,0 -8501.95,-3521.16 -8501.95,-10018.89 0,-6497.7 4303.89,-13511.38 8501.95,-13511.38 4198.04,0 8643.04,6978.41 8643.04,13476.11z"/>
  </g>
  <g id="_1227315232">
   <g style="clip-path:url(#id0)">
    <image x="1071.04" y="2818.2" width="18321.86" height="24197.72" xlink:href="星.svg_Images\星.svg_ImgID1.png"/>
   </g>
  </g>
  <g id="_1227314624">
   <g style="clip-path:url(#id1)">
    <image x="1071.04" y="2818.2" width="18321.86" height="24197.72" xlink:href="星.svg_Images\星.svg_ImgID2.png"/>
   </g>
  </g>
  <path class="fil0" d="M7795.61 12233.8l2125.48 -4330.35c0,0 132.29,-273.4 308.68,-273.4l-17.31 0c176.39,0 308.68,273.4 308.68,273.4l2125.5 4330.35 4891.52 711.43c0,0 211.63,23.53 293.97,217.56 82.33,194.03 -235.17,470.38 -235.17,470.38l-3363.17 3263.14 805.53 4786.07c0,0 70.56,288.08 -88.19,405.69 -158.75,117.59 -593.87,-94.08 -593.87,-94.08l-4086.32 -2163.69 -4227.46 2193.08c0,0 -270.45,165.22 -446.84,100.25 -176.39,-64.98 -147.01,-335.42 -129.37,-505.95 17.64,-170.53 776.11,-4709.58 776.11,-4709.58l-3427.81 -3369.02c0,0 -164.64,-135.24 -170.52,-329.27 -5.87,-194.02 105.83,-246.94 335.14,-282.22 229.31,-35.28 4815.42,-693.79 4815.42,-693.79zm-1234.73 4562.61l0 0 -823.13 5062.36 4507.54 -2357.76 4517.67 2357.76 -846.67 -5044.72 3645.4 -3580.71 -5015.34 -723.19 -2301.06 -4568.47 -2285.04 4550.83 -5015.34 740.83 3615.97 3563.07z"/>
  <polygon class="fil0" points="4561.82,13786.02 7360.51,16549.46 6737.27,20441.77 10229.77,18613.21 13728.12,20441.77 13069.63,16531.82 15980.04,13739 11981.91,13162.79 10245.29,9640.88 8501.16,13180.43 "/>
 </g>
</svg>
